<svg width="14" height="14" viewBox="0 0 14 14" fill="none" xmlns="http://www.w3.org/2000/svg">
<g clip-path="url(#clip0_207437_7450)">
<rect width="14" height="14" fill="white" fill-opacity="0.01"/>
<path d="M11.4389 3.53731L2.35192 12.6243C2.21247 12.7637 2.04979 12.8335 1.86387 12.8335C1.67794 12.8335 1.51526 12.7637 1.37582 12.6243C1.23638 12.4849 1.16666 12.3183 1.16666 12.1246C1.16666 11.931 1.23638 11.7644 1.37582 11.625L10.4628 2.56121H2.37516C2.17374 2.56121 2.00718 2.49536 1.87549 2.36367C1.74379 2.23197 1.67794 2.06542 1.67794 1.864C1.67794 1.66258 1.74379 1.49603 1.87549 1.36433C2.00718 1.23264 2.17374 1.16679 2.37516 1.16679H12.1361C12.3375 1.16679 12.5041 1.23264 12.6358 1.36433C12.7675 1.49603 12.8333 1.66258 12.8333 1.864V11.625C12.8333 11.8264 12.7675 11.9929 12.6358 12.1246C12.5041 12.2563 12.3375 12.3222 12.1361 12.3222C11.9347 12.3222 11.7681 12.2563 11.6364 12.1246C11.5047 11.9929 11.4389 11.8264 11.4389 11.625V3.53731Z"/>
</g>
<defs>
<clipPath id="clip0_207437_7450">
<rect width="14" height="14" fill="white"/>
</clipPath>
</defs>
</svg>
