<svg width="36" height="36" viewBox="0 0 36 36" fill="none" xmlns="http://www.w3.org/2000/svg">
<g clip-path="url(#clip0_207437_9104)">
<path d="M34.2071 1.41176L20.16 11.8447L22.7577 5.68941L34.2071 1.41176Z" fill="#E2761B" stroke="#E2761B" stroke-linecap="round" stroke-linejoin="round"/>
<path d="M1.77886 1.41176L15.713 11.9435L13.2424 5.68941L1.77886 1.41176ZM29.153 25.5953L25.4118 31.327L33.4165 33.5294L35.7177 25.7223L29.153 25.5953ZM0.296509 25.7223L2.58357 33.5294L10.5883 31.327L6.8471 25.5953L0.296509 25.7223Z" fill="#E4761B" stroke="#E4761B" stroke-linecap="round" stroke-linejoin="round"/>
<path d="M10.1365 15.9106L7.90588 19.2847L15.8541 19.6377L15.5718 11.0965L10.1365 15.9106ZM25.8494 15.9106L20.3435 10.9977L20.16 19.6377L28.0941 19.2847L25.8494 15.9106ZM10.5882 31.3271L15.36 28.9977L11.2376 25.7788L10.5882 31.3271ZM20.6259 28.9977L25.4118 31.3271L24.7482 25.7788L20.6259 28.9977Z" fill="#E4761B" stroke="#E4761B" stroke-linecap="round" stroke-linejoin="round"/>
<path d="M25.4118 31.3271L20.6259 28.9977L21.0071 32.1177L20.9647 33.4306L25.4118 31.3271ZM10.5883 31.3271L15.0353 33.4306L15.0071 32.1177L15.36 28.9977L10.5883 31.3271Z" fill="#D7C1B3" stroke="#D7C1B3" stroke-linecap="round" stroke-linejoin="round"/>
<path d="M15.1059 23.7176L11.1248 22.5459L13.9342 21.2612L15.1059 23.7176ZM20.88 23.7176L22.0518 21.2612L24.8753 22.5459L20.88 23.7176Z" fill="#233447" stroke="#233447" stroke-linecap="round" stroke-linejoin="round"/>
<path d="M10.5882 31.327L11.2659 25.5953L6.84705 25.7223L10.5882 31.327ZM24.7341 25.5953L25.4118 31.327L29.1529 25.7223L24.7341 25.5953ZM28.0941 19.2847L20.16 19.6376L20.8941 23.7176L22.0659 21.2612L24.8894 22.5459L28.0941 19.2847ZM11.1247 22.5459L13.9482 21.2612L15.1059 23.7176L15.8541 19.6376L7.90587 19.2847L11.1247 22.5459Z" fill="#CD6116" stroke="#CD6116" stroke-linecap="round" stroke-linejoin="round"/>
<path d="M7.90588 19.2847L11.2376 25.7788L11.1247 22.5459L7.90588 19.2847ZM24.8894 22.5459L24.7482 25.7788L28.0941 19.2847L24.8894 22.5459ZM15.8541 19.6376L15.1059 23.7176L16.0376 28.5318L16.2494 22.1929L15.8541 19.6376ZM20.16 19.6376L19.7788 22.1788L19.9482 28.5318L20.8941 23.7176L20.16 19.6376Z" fill="#E4751F" stroke="#E4751F" stroke-linecap="round" stroke-linejoin="round"/>
<path d="M20.8942 23.7176L19.9483 28.5318L20.6259 28.9976L24.7483 25.7788L24.8895 22.5459L20.8942 23.7176ZM11.1248 22.5459L11.2377 25.7788L15.3601 28.9976L16.0377 28.5318L15.1059 23.7176L11.1248 22.5459Z" fill="#F6851B" stroke="#F6851B" stroke-linecap="round" stroke-linejoin="round"/>
<path d="M20.9647 33.4306L21.0071 32.1176L20.6541 31.8071H15.3318L15.0071 32.1176L15.0353 33.4306L10.5883 31.3271L12.1412 32.5976L15.2894 34.7859H20.6965L23.8588 32.5976L25.4118 31.3271L20.9647 33.4306Z" fill="#C0AD9E" stroke="#C0AD9E" stroke-linecap="round" stroke-linejoin="round"/>
<path d="M20.6259 28.9976L19.9483 28.5318H16.0377L15.36 28.9976L15.0071 32.1176L15.3318 31.8071H20.6541L21.0071 32.1176L20.6259 28.9976Z" fill="#161616" stroke="#161616" stroke-linecap="round" stroke-linejoin="round"/>
<path d="M34.8 12.5223L36 6.76235L34.2071 1.41176L20.6259 11.4918L25.8494 15.9106L33.2329 18.0706L34.8706 16.1647L34.1647 15.6565L35.2941 14.6259L34.4188 13.9482L35.5482 13.0871L34.8 12.5223ZM0 6.76235L1.2 12.5223L0.437647 13.0871L1.56706 13.9482L0.705882 14.6259L1.83529 15.6565L1.12941 16.1647L2.75294 18.0706L10.1365 15.9106L15.36 11.4918L1.77882 1.41176L0 6.76235Z" fill="#763D16" stroke="#763D16" stroke-linecap="round" stroke-linejoin="round"/>
<path d="M33.233 18.0706L25.8495 15.9106L28.0942 19.2847L24.7483 25.7788L29.153 25.7224H35.7177L33.233 18.0706ZM10.1365 15.9106L2.75298 18.0706L0.296509 25.7224H6.8471L11.2377 25.7788L7.90592 19.2847L10.1365 15.9106ZM20.16 19.6377L20.6259 11.4918L22.7718 5.68942H13.2424L15.36 11.4918L15.8542 19.6377L16.0236 22.2071L16.0377 28.5318H19.9483L19.9765 22.2071L20.16 19.6377Z" fill="#F6851B" stroke="#F6851B" stroke-linecap="round" stroke-linejoin="round"/>
</g>
<defs>
<clipPath id="clip0_207437_9104">
<rect width="36" height="36" fill="white"/>
</clipPath>
</defs>
</svg>
