<svg width="48" height="48" viewBox="0 0 48 48" fill="none" xmlns="http://www.w3.org/2000/svg">
<path d="M41.9917 35.6738V24.8829L43.905 25.9488V34.5985L41.9917 35.6738ZM22.3544 44.8898L32.3409 39.2641V41.1074L24 45.8114L22.3544 44.8898ZM4.08498 32.6884L14.4063 38.515L12.7224 39.4657L4.08498 34.5985V32.6884ZM5.95986 12.2499V22.9249L4.08498 21.859V13.2957L5.95986 12.2499ZM25.6832 3.11966L15.6497 8.93751V6.83527L23.9906 2.1791L25.6832 3.11966ZM43.915 15.226L33.2783 9.31172L34.9905 8.31383L43.915 13.2957V15.226ZM29.6052 11.4429L31.3557 10.4255L43.915 17.4051V19.392L29.6052 11.4429ZM25.7505 13.68L27.6825 12.5567L43.915 21.5711V23.7697L25.7505 13.68ZM38.1659 22.7517L40.098 23.8271V36.7492L38.1659 37.834V22.7517ZM34.244 20.582L36.2628 21.7059V38.9088L34.244 40.0516V20.582ZM32.3409 34.8864V37.0755L20.413 43.7955L18.4715 42.7012L32.3409 34.8864ZM24 35.299L32.3503 30.5949V32.6978L16.5294 41.6063L14.6545 40.5505L24 35.299ZM4.08498 28.3295L18.261 36.3359L16.3383 37.4208L4.08498 30.4992V28.3295ZM13.7553 29.5101V29.5296L22.0585 34.2047L20.2025 35.2511L4.08498 26.141V24.0482L13.7553 29.5101ZM9.79572 25.0851L7.86303 23.9902V11.184L9.79572 10.1086V25.0851ZM13.7553 27.3216L11.6989 26.1599V9.04272L13.7553 7.89112V27.3216ZM15.6497 12.9984V11.1361L27.6153 4.19503L29.2514 5.10724L15.6497 12.9984ZM15.6497 19.5457L23.9906 14.8896L32.3308 19.5457V28.4158L23.9805 33.1199L15.6397 28.4064V19.5457H15.6497ZM15.6497 17.3282V15.2064L31.1835 6.20151L33.0483 7.24791L15.6497 17.3282ZM24 0L2.18182 12.1731V35.7123L24 48L45.8182 35.7123V12.1731L24 0Z" fill="#EDBD4E"/>
</svg>
